<?xml version="1.0" encoding="UTF-8" standalone="no"?>
<!-- Created with Inkscape (http://www.inkscape.org/) -->

<svg
   xmlns:dc="http://purl.org/dc/elements/1.1/"
   xmlns:cc="http://creativecommons.org/ns#"
   xmlns:rdf="http://www.w3.org/1999/02/22-rdf-syntax-ns#"
   xmlns:svg="http://www.w3.org/2000/svg"
   xmlns="http://www.w3.org/2000/svg"
   xmlns:sodipodi="http://sodipodi.sourceforge.net/DTD/sodipodi-0.dtd"
   xmlns:inkscape="http://www.inkscape.org/namespaces/inkscape"
   width="6.7527471mm"
   height="9.0000362mm"
   viewBox="0 0 23.927057 31.889894"
   id="svg2"
   version="1.1"
   inkscape:version="0.91 r13725"
   sodipodi:docname="tinyfinger.svg">
  <defs
     id="defs4" />
  <sodipodi:namedview
     id="base"
     pagecolor="#ffffff"
     bordercolor="#666666"
     borderopacity="1.0"
     inkscape:pageopacity="0.0"
     inkscape:pageshadow="2"
     inkscape:zoom="22.4"
     inkscape:cx="4.5162454"
     inkscape:cy="15.916427"
     inkscape:document-units="px"
     inkscape:current-layer="layer1"
     showgrid="false"
     fit-margin-top="0"
     fit-margin-left="0"
     fit-margin-right="0"
     fit-margin-bottom="0"
     inkscape:window-width="1871"
     inkscape:window-height="1056"
     inkscape:window-x="49"
     inkscape:window-y="24"
     inkscape:window-maximized="1" />
  <metadata
     id="metadata7">
    <rdf:RDF>
      <cc:Work
         rdf:about="">
        <dc:format>image/svg+xml</dc:format>
        <dc:type
           rdf:resource="http://purl.org/dc/dcmitype/StillImage" />
        <dc:title></dc:title>
      </cc:Work>
    </rdf:RDF>
  </metadata>
  <g
     inkscape:label="Cu"
     inkscape:groupmode="layer"
     id="layer1"
     transform="translate(-353.8613,-533.62749)">
    <path
       style="fill:#000000"
       d="M 21.152344 0 C 19.553624 0.056399997 18.414703 1.689247 18.539062 3.2167969 C 18.476263 4.4567268 17.786762 5.5613344 17.632812 6.8027344 C 17.922732 7.8977243 16.888883 9.1527338 17.601562 10.058594 C 18.196012 9.0583538 17.824124 7.5660737 18.339844 6.4648438 C 18.541464 5.1906238 19.116445 4.0132418 19.078125 2.7011719 C 19.032525 1.333432 20.986754 -0.35200616 22.021484 1.1210938 C 23.346834 1.7789337 23.59737 3.264847 23.3125 4.5605469 C 23.16787 5.7929668 23.409904 7.1839082 22.865234 8.3300781 C 22.816834 9.5812181 22.466646 10.958881 22.128906 12.238281 C 21.869466 13.640021 21.457187 15.068654 21.873047 16.490234 C 21.976147 17.039474 22.458887 18.867915 21.617188 17.484375 C 20.812408 15.894945 20.226004 14.201655 19.558594 12.546875 C 19.225824 11.862425 18.173919 11.471845 18.167969 10.640625 C 18.195269 9.4357151 17.544294 10.895727 17.214844 10.054688 C 16.199724 10.383817 18.233286 11.427988 18.447266 12.085938 C 19.472026 13.083357 19.55235 14.536615 20.1875 15.765625 C 20.75125 16.881385 21.013519 18.059327 22.199219 18.779297 C 22.279219 19.983797 22.354221 21.199174 22.494141 22.396484 C 22.447541 24.288394 22.525939 26.269546 21.886719 28.072266 C 21.268319 29.338976 20.275271 30.641803 18.738281 30.689453 C 17.409281 30.632753 16.305271 31.697109 14.869141 31.355469 C 13.044381 31.283969 11.133744 31.477124 9.4335938 30.677734 C 8.5148838 31.509764 6.7318849 30.641935 5.796875 29.953125 C 4.992005 28.902115 3.9314462 28.021152 3.4101562 26.763672 C 2.2442663 24.402752 2.3614843 21.693135 1.8339844 19.166016 C 0.62679445 17.988706 0.43215876 16.122785 0.54296875 14.515625 C 0.73041874 13.423495 0.92789256 12.013272 1.9140625 11.382812 C 3.0874924 11.064283 3.8175813 12.041835 4.3320312 12.796875 C 4.5530912 13.576745 4.3865269 14.70145 4.7167969 15.5625 C 5.0723569 16.89292 6.176437 18.532532 7.7480469 18.232422 C 8.4242302 18.150033 8.7879026 17.433518 9.1816406 17.005859 C 9.2571547 16.762696 9.2051374 16.441254 8.9003906 16.556641 C 8.6399485 17.116805 8.0718911 17.590508 7.4921875 17.767578 C 5.7974676 17.711578 5.0884019 15.667566 4.9824219 14.228516 C 4.8310319 12.661386 4.8811057 10.775772 6.3222656 9.7890625 C 6.7583656 9.4433425 7.3231869 9.2640762 7.8730469 9.2226562 C 9.1278168 9.7390162 8.75264 11.052476 8.71875 12.197266 C 8.77845 13.187496 8.6069156 14.21696 8.7910156 15.1875 C 8.8663224 15.288754 8.9111205 15.393654 8.953125 15.498047 L 8.9609375 15.5 C 8.9609375 15.5 8.9844773 15.554043 8.9863281 15.560547 C 8.989451 15.569712 8.9951591 15.578715 8.9980469 15.587891 C 9.0382395 15.724338 9.2597425 16.43184 9.8515625 16.707031 C 10.000745 16.742118 10.165026 16.83458 10.357422 17.023438 C 11.154192 17.557617 12.593677 16.142911 11.029297 16.550781 C 9.405387 16.691781 9.0748838 14.674503 9.1835938 13.439453 C 9.1725938 11.638063 9.2022938 9.6976043 10.371094 8.2089844 C 11.036714 6.8051345 13.423949 6.3126295 14.193359 7.8808594 C 14.628139 8.5338393 15.477522 9.5413363 14.107422 9.5976562 C 12.650662 10.371756 12.970049 12.241962 12.949219 13.607422 C 13.934739 14.418622 13.835243 16.025918 14.726562 16.992188 C 15.522642 18.230747 15.586346 19.791173 16.285156 21.064453 C 17.000596 21.542873 17.111051 23.453749 18.050781 23.167969 C 17.621361 21.909839 16.562251 20.896159 16.337891 19.542969 C 16.008121 18.207999 15.50489 17.061569 14.75 15.917969 C 13.99004 14.832369 14.105126 13.397322 13.447266 12.289062 C 13.391366 11.272863 13.716018 9.8662462 15.023438 9.8476562 C 15.516787 9.7708563 17.369424 10.528669 16.371094 9.5996094 C 15.074434 9.6016094 15.267567 8.0429056 14.429688 7.3535156 C 13.330628 5.7256957 10.627897 6.3744926 9.8984375 8.0390625 C 9.3190175 8.7977925 9.1477537 10.188127 8.4023438 8.8417969 C 6.8355238 8.3763769 5.1981893 9.7231295 4.6933594 11.162109 C 4.5594994 11.935559 4.4260812 12.267378 3.9570312 11.423828 C 2.9564013 10.400768 0.95032498 10.687813 0.640625 12.220703 C -0.29471494 14.370283 -0.23216743 17.011834 1.0078125 19.027344 C 1.8976924 20.179944 1.5498725 21.860372 1.9140625 23.232422 C 2.1472725 25.619582 3.1244764 27.956164 4.8789062 29.621094 C 5.8394962 31.186284 7.7801488 31.470864 9.4492188 31.621094 C 10.598249 31.382284 11.910348 31.968086 13.173828 31.816406 C 14.509928 31.822406 15.863665 32.053026 17.171875 31.666016 C 18.189325 31.333786 19.776601 31.177372 20.806641 30.388672 C 22.005821 29.301202 22.773166 27.755253 22.822266 26.126953 C 22.933806 24.549063 23.135859 22.925805 22.943359 21.359375 C 22.906159 20.120455 22.727161 18.846212 22.582031 17.539062 C 22.247291 16.089333 21.999699 14.57703 22.480469 13.125 C 22.628569 11.66867 23.360917 10.32682 23.304688 8.84375 C 23.958717 7.0084201 23.698324 5.0082018 23.927734 3.1074219 C 23.889834 1.678022 22.579069 0.92844933 21.599609 0.13085938 C 21.472909 0.034559381 21.307634 0.0040299998 21.152344 0 z M 21.558594 4.0722656 C 21.175774 4.4380756 19.394463 3.8069613 20.226562 4.6132812 C 20.640982 5.0870812 22.924624 4.4953856 21.558594 4.0722656 z M 11.613281 7.8613281 C 10.940008 7.9081469 10.154445 8.1785725 10.78125 8.734375 C 11.12008 8.584845 13.716646 8.2673387 12.191406 7.8867188 C 12.048366 7.8546563 11.837706 7.8457219 11.613281 7.8613281 z M 19.34375 8.5214844 C 18.28041 9.1395543 21.519482 9.3683987 19.576172 9.1992188 C 17.979492 9.5344187 21.115829 10.328437 20.605469 9.3105469 C 21.614649 8.6214569 19.85335 8.6249344 19.34375 8.5214844 z M 7.0546875 10.292969 C 6.9121956 10.279732 6.7777531 10.285943 6.6972656 10.314453 C 5.5413957 10.734163 6.6817794 11.382785 7.3808594 10.828125 C 7.9890418 10.54371 7.4821631 10.332679 7.0546875 10.292969 z M 15.748047 10.455078 C 14.122737 10.270428 13.651628 12.049454 14.392578 13.177734 C 14.860848 14.228804 16.944449 13.503453 17.068359 12.626953 C 16.334559 12.690953 14.664062 13.806424 14.539062 12.146484 C 13.768293 10.719284 16.524365 11.377816 16.171875 10.509766 L 16 10.466797 L 15.748047 10.455078 z M 16.882812 10.8125 C 16.045913 11.10761 17.676107 13.431191 17.429688 11.806641 C 17.218788 11.516241 17.225222 10.9733 16.882812 10.8125 z M 11.861328 11.408203 C 11.375838 11.455403 8.9160601 11.584776 9.96875 12.191406 C 10.27889 11.985436 13.142638 12.041273 11.861328 11.408203 z M 10.980469 12.125 C 10.014339 12.0373 9.6214182 13.549414 10.767578 12.714844 C 11.156888 12.692044 11.616279 12.23311 10.980469 12.125 z M 2.1582031 12.205078 C 1.5861532 12.411758 1.7625381 12.982033 1.4550781 13.376953 C 2.1728681 13.554153 3.4183081 12.773858 2.3925781 12.267578 L 2.1582031 12.205078 z M 6.3378906 13.480469 C 5.4345168 13.54483 4.4868582 14.672925 5.8769531 14.644531 C 6.3492031 14.367661 8.4799418 14.647361 7.2324219 13.962891 C 6.8227719 14.065041 7.1131437 13.429181 6.7148438 13.525391 C 6.594545 13.484718 6.466944 13.471274 6.3378906 13.480469 z M 11.212891 14.044922 C 11.160252 14.039534 11.105362 14.041936 11.046875 14.058594 C 9.6464551 13.914534 9.7363432 15.385688 10.626953 15.960938 C 11.607523 16.554787 12.2424 14.749753 10.96875 15.595703 C 10.36671 15.186363 9.7768113 14.454915 11.019531 14.703125 C 11.492141 14.809845 12.954552 15.101899 12.226562 14.287109 C 11.826451 14.572394 11.58136 14.082635 11.212891 14.044922 z M 7.8378906 15.234375 C 7.3730607 15.801465 5.5701663 15.435447 6.0664062 16.404297 C 6.6409562 17.191487 7.0094456 16.794181 6.9472656 16.212891 C 8.1976656 15.726871 7.5861287 16.8823 6.9804688 17.0625 C 7.6838987 18.00468 9.0483106 15.464935 7.8378906 15.234375 z M 2.1035156 15.466797 C 1.4007358 15.555801 0.051201941 16.293503 1.1542969 16.320312 C 1.3975469 16.205073 1.4522344 17.197847 2.0839844 16.466797 C 3.3976943 16.232347 2.9777718 16.055646 2.3574219 15.472656 C 2.2924931 15.454949 2.2039127 15.454082 2.1035156 15.466797 z M 18.175781 15.949219 C 17.534991 15.844059 16.061127 16.960297 17.404297 16.742188 C 18.366587 16.617378 15.893319 17.427681 17.355469 17.488281 C 18.137499 17.382381 18.085042 16.69258 18.138672 16.4375 C 18.434422 16.4076 18.474251 15.971309 18.175781 15.949219 z M 3.6367188 16.65625 C 2.6990888 16.83221 0.76442947 17.999591 2.3183594 18.800781 C 3.2016693 19.299951 3.4625762 18.194624 2.4101562 18.277344 C 1.6495863 17.828924 4.6717062 16.703745 3.5039062 17.859375 C 2.4343263 19.649165 5.7192786 17.04075 3.6367188 16.65625 z M 5.0253906 17.537109 C 4.3642107 18.299689 3.6366075 19.317809 2.8046875 19.849609 C 3.8146074 20.357149 5.3707606 18.336739 5.0253906 17.537109 z M 11.689453 17.664062 C 10.144803 18.372072 8.6380831 19.368016 7.6582031 20.785156 C 7.5492831 22.301526 8.6162782 20.104518 9.1425781 19.861328 C 9.8741881 18.990448 11.456659 18.666166 11.880859 17.753906 L 11.689453 17.664062 z M 15.257812 20.570312 C 14.647203 21.340202 15.510946 23.179692 16.097656 23.732422 C 16.311816 23.796622 17.143916 24.924262 16.947266 23.914062 C 16.175516 22.906073 16.073702 21.480162 15.257812 20.570312 z M 21.078125 20.666016 C 20.539825 20.877226 18.561074 22.122322 20.115234 21.851562 C 20.382974 21.609913 21.792435 21.065436 21.078125 20.666016 z M 21.595703 21.181641 C 21.079413 21.477691 20.176989 23.041166 21.474609 22.222656 C 21.615919 22.013566 22.111983 21.248681 21.595703 21.181641 z M 16.990234 24.574219 C 16.401844 25.207209 18.457769 26.823341 18.980469 26.275391 C 18.449109 25.603081 17.538644 25.246329 16.990234 24.574219 z "
       transform="translate(353.8613,533.62749)"
       id="path3411" />
  </g>
</svg>
